<svg xmlns="http://www.w3.org/2000/svg" width="128" height="128"><g fill="#e60c3b"><path d="M64 23.911a2.985 2.985 0 0 0-1.75 5.407v4.932a1.75 1.75 0 0 0 3.5 0v-4.932A2.985 2.985 0 0 0 64 23.911zM85.036 44.714a1.741 1.741 0 0 0 1.237-.513l3.488-3.487a2.991 2.991 0 1 0-2.475-2.475L83.8 41.727a1.75 1.75 0 0 0 1.237 2.987zM101.1 61.009a2.979 2.979 0 0 0-2.416 1.241H93.75a1.75 1.75 0 0 0 0 3.5h4.932a2.988 2.988 0 1 0 2.416-4.741zM89.761 87.286 86.273 83.8a1.749 1.749 0 0 0-2.473 2.473l3.487 3.488a2.991 2.991 0 1 0 2.475-2.475zM65.75 98.682V93.75a1.75 1.75 0 0 0-3.5 0v4.932a2.991 2.991 0 1 0 3.5 0zM41.727 83.8l-3.488 3.487a2.991 2.991 0 1 0 2.475 2.475l3.486-3.489a1.749 1.749 0 0 0-2.473-2.473zM36 64a1.749 1.749 0 0 0-1.75-1.75h-4.932a2.991 2.991 0 1 0 0 3.5h4.932A1.749 1.749 0 0 0 36 64zM40.714 38.239a2.991 2.991 0 1 0-2.475 2.475l3.488 3.486a1.749 1.749 0 0 0 2.473-2.473z"/></g><circle cx="64" cy="64" r="29.75" fill="#f8495d"/><g fill="#dee1f3"><path d="M50.284 57.576a6.746 6.746 0 0 0 9.541 0l-9.541-9.54a6.747 6.747 0 0 0 0 9.54zM77.716 57.576a6.746 6.746 0 0 1-9.541 0l9.541-9.54a6.747 6.747 0 0 1 0 9.54z"/></g><g fill="#dee1f3"><path d="M90.07 79.75a12.146 12.146 0 0 1-2.4-.237 1.75 1.75 0 0 1 .693-3.43 8.719 8.719 0 0 0 1.706.167c3.125 0 5.766-1.656 5.766-3.617 0-1.249-1.152-2.479-2.937-3.134a1.75 1.75 0 1 1 1.2-3.285c3.227 1.183 5.232 3.643 5.232 6.419.006 3.991-4.064 7.117-9.26 7.117zM37.93 79.75c-5.2 0-9.266-3.126-9.266-7.117 0-2.776 2-5.236 5.232-6.419A1.75 1.75 0 0 1 35.1 69.5c-1.785.655-2.937 1.885-2.937 3.134 0 1.961 2.641 3.617 5.766 3.617a8.719 8.719 0 0 0 1.706-.167 1.75 1.75 0 0 1 .693 3.43 12.146 12.146 0 0 1-2.398.236z"/></g><path d="M88.015 64.5v18.993L74.6 90.009C64 95 64 95 53.4 90.009l-13.415-6.516V64.5l17.1-4.129a29.6 29.6 0 0 1 13.824 0z" fill="#95edf7"/><path d="m88.018 78.374-13.526 3.469a42.242 42.242 0 0 1-20.984 0l-13.526-3.469v-9.566l17-1.981a39.824 39.824 0 0 1 14.036 0l17 1.981z" fill="#52e1f3"/></svg>